<svg width="137" height="116" viewBox="0 0 137 116" fill="none" xmlns="http://www.w3.org/2000/svg">
<path d="M24.6639 46.7576C25.6048 46.6262 26.4764 46.2191 27.1521 45.5954C27.8279 44.9717 28.2728 44.1637 28.4224 43.2886C32.0909 21.729 48.8845 8.74603 68.4667 8.74603C86.6517 8.74603 98.7676 19.8361 103.583 31.5231C103.867 32.2167 104.341 32.8283 104.96 33.2963C105.578 33.7642 106.318 34.0719 107.105 34.1883C122.822 36.5131 135.933 46.2392 135.933 63.2016C135.933 80.4807 120.753 92.5238 102.2 92.5238H29.1111C13.65 92.5238 1 85.3399 1 69.4849C1 55.2348 13.338 48.3284 24.6639 46.7576Z" stroke="black" stroke-linejoin="round"/>
<g filter="url(#filter0_d_3_4)">
<path d="M59.9672 58.32H66.0312V59.056H59.9672V58.32ZM60.0632 64H59.2472V52.8H66.7352V53.536H60.0632V64ZM69.3409 64V52.8H73.3569C74.2956 52.8 75.1009 52.9493 75.7729 53.248C76.4449 53.5467 76.9623 53.9787 77.3249 54.544C77.6876 55.0987 77.8689 55.776 77.8689 56.576C77.8689 57.3547 77.6876 58.0267 77.3249 58.592C76.9623 59.1573 76.4449 59.5893 75.7729 59.888C75.1009 60.1867 74.2956 60.336 73.3569 60.336H69.7889L70.1569 59.952V64H69.3409ZM70.1569 60L69.7889 59.6H73.3569C74.5623 59.6 75.4743 59.3387 76.0929 58.816C76.7223 58.2827 77.0369 57.536 77.0369 56.576C77.0369 55.6053 76.7223 54.8587 76.0929 54.336C75.4743 53.8027 74.5623 53.536 73.3569 53.536H69.7889L70.1569 53.136V60Z" fill="black"/>
</g>
<defs>
<filter id="filter0_d_3_4" x="55.2472" y="52.8" width="26.6218" height="19.2" filterUnits="userSpaceOnUse" color-interpolation-filters="sRGB">
<feFlood flood-opacity="0" result="BackgroundImageFix"/>
<feColorMatrix in="SourceAlpha" type="matrix" values="0 0 0 0 0 0 0 0 0 0 0 0 0 0 0 0 0 0 127 0" result="hardAlpha"/>
<feOffset dy="4"/>
<feGaussianBlur stdDeviation="2"/>
<feComposite in2="hardAlpha" operator="out"/>
<feColorMatrix type="matrix" values="0 0 0 0 0 0 0 0 0 0 0 0 0 0 0 0 0 0 0.25 0"/>
<feBlend mode="normal" in2="BackgroundImageFix" result="effect1_dropShadow_3_4"/>
<feBlend mode="normal" in="SourceGraphic" in2="effect1_dropShadow_3_4" result="shape"/>
</filter>
</defs>
</svg>
